<svg xmlns="http://www.w3.org/2000/svg" viewBox="0 0 64 64">
  <defs>
    <radialGradient id="cream" cx="0.5" cy="0.5">
      <stop offset="0%" stop-color="#fef3e2"/>
      <stop offset="100%" stop-color="#f5e6d3"/>
    </radialGradient>
    <radialGradient id="pink" cx="0.3" cy="0.3">
      <stop offset="0%" stop-color="#fda4af"/>
      <stop offset="100%" stop-color="#e11d48"/>
    </radialGradient>
    <radialGradient id="rose" cx="0.3" cy="0.3">
      <stop offset="0%" stop-color="#fecdd3"/>
      <stop offset="100%" stop-color="#fb7185"/>
    </radialGradient>
  </defs>
  <rect width="64" height="64" rx="14" fill="url(#cream)"/>
  <g>
    <circle cx="32" cy="20" r="3" fill="url(#pink)"/>
    <circle cx="38" cy="24" r="2.5" fill="url(#rose)"/>
    <circle cx="26" cy="24" r="2.5" fill="url(#rose)"/>
    <circle cx="32" cy="28" r="2.8" fill="url(#pink)"/>
    <circle cx="22" cy="28" r="2" fill="url(#rose)"/>
    <circle cx="42" cy="28" r="2" fill="url(#rose)"/>
    <circle cx="28" cy="22" r="1.5" fill="#fda4af"/>
    <circle cx="36" cy="22" r="1.5" fill="#fda4af"/>
  </g>
  <path d="M32 30 Q30 38 26 48 Q24 52 22 54" stroke="#65a30d" stroke-width="2" fill="none" stroke-linecap="round"/>
  <path d="M32 30 Q34 38 36 46 Q38 50 40 52" stroke="#65a30d" stroke-width="2" fill="none" stroke-linecap="round"/>
  <path d="M32 32 L32 54" stroke="#65a30d" stroke-width="2.5" stroke-linecap="round"/>
  <path d="M28 40 Q22 38 18 42 Q24 44 30 42" fill="#84cc16"/>
  <path d="M36 42 Q42 40 46 44 Q40 46 34 44" fill="#84cc16"/>
  <path d="M24 56 L40 56 L42 60 L22 60 Z" fill="#dc2626"/>
  <path d="M28 60 L32 58 L36 60" stroke="#fef3e2" stroke-width="0.8" fill="none"/>
</svg>
